<svg id="Calque_1" data-name="Calque 1" xmlns="http://www.w3.org/2000/svg" viewBox="0 0 860.36 934.22"><defs><style>.cls-1{opacity:0.56;}.cls-2{fill:#ccc;stroke:#fff;stroke-width:0.5px;}.cls-3{fill:none;stroke:#5993fd;stroke-width:10px;}</style></defs><g id="Calque_1-2" data-name="Calque 1"><g class="cls-1"><path id="FR-A" class="cls-2" d="M1169.8,628.7l10.5-5.2-2.9-7.6,6-20.3L1200,575l-2.2-6.7,17.5-31-2.4-5.5-13-2.4,5.2-23-3.4-5.5,5.6,1.1-8.6-5,19.2-5.3,10.8-20.4-7.8-6.1,9.1-14.3-6.9-10.4-13.4-4.4-9.4,11.5-3.4-11.3,5.5-3.5-17.6-5.9-1.4-7.6,11.1-4.3,8.3-23.1,3.5,13.6,21.1,6.1,4,5.8,15.8-4.8,10.6,6.9,12.5-23.1h0L1290,394l9.1,6.2,8.5-4.7,37.5,17.5-17.9,31.1-14.7,8.6-16.6,22-13.4,46.6L1284,534l-6.5,4.8-14.6,34L1262,589l6.6,11.6-8.2,17.3-1.1,27.1-4.6,6.8,9,22.6-10.6,6.7,4,2.1-5.3,8.4-7.2-2.4,3,4.5-8.7,7.2-17.9,2-9.2-4.2,4-9.3-8.7-1.7h0l-5.8-16.6-10.1-1.7,3.9-22.4-21.4-11.1Z" transform="translate(-485.1 0.33)"/><path id="FR-D" class="cls-2" d="M694.7,528.1l-4,10.2,4,10.4L680.9,565h0l11.6,5.6,2.5,11.2,9.4,8.1.4,10.7L690,613l2,22.2-21.8,5.5-.5,7.5,9.8,6.5,6.3,20.9-16.1,5.8,10.4,18.5-7.9,18.4,14.3,14.1,4.5,36.3,7.5,7.4L692.7,818h0l21.1,21.6,8.7-7.4,9.8,6,9.2-5.5,4.5,11.4,13-6.8,3.5-13.3,4.6,1.3,14,27.8.7,11.5,12.2,1.3,3.8,7.9,10.1-.9,6.2,5.6.6,24.3-13.2,9.3h0l-1.1,11.1,10.3,2.1,2.1,6,27.4-4.6,8.5,6.9,12.2-5.3,4.1-19.8,12.3,5.1,8.1-4.8,6.3,5.1,7.7-7.3,9.8,24.2,22.9-62.7,14.5,6.3,13.9-6.3,8.5,11.1,9.8,2.1h0l12.9-5.6-7.4-15.5,10.4-13.7L984.8,830l3.8-7.4-8-8.2,17.4-4.6-8.3-9.5-8.8.9-4.4-9.5-3.7,2-1.2-9.1,8-6.4-4.3-6.6,12.7-6.1,6.8-11.4,10-29.1-6.3-2.4,1.8-14.2-6.5.1.8-10.7-9-2.6,16.3-16.8-7-13.8-8.6,4.6h0l-8.2-.8-6.9,6.1,1-8.4-10.8-5.6.6-5.2-7.6,6.3-11.2-11.9-7.6,4.5-1.2-14.1-5.4-1,9.6-7.6-11.2-21.1-9,2.3,4.2-5.9-10.1-4.1,1.1-8.1-26.9-4.3-5.3,4.2,2.3,7.2L853.6,603l-2.7,6.8-6-1-2.3-7.8-3,5.7-4.4-3.4-7.2,6.3-6.3-3.7-1.9,3.8-18.8-.8,2.3-9.4-2.4-4.1-5.4,3.5,2.5-6-10.1-19.2-6.5-2.7,1.1-6.3-10.2,4.8-4.6-9.4-6.5,1,5-15.8L752,526.7l-9.5,1.5-1.8-6Z" transform="translate(-485.1 0.33)"/><path id="FR-G" class="cls-2" d="M919,184.2l7.6,3.4-9.6,14,2.7,5.3-6.5,13.5,12.4,11.5-5.2,8.3.6,14.3,18-1.4,12.4,7.2,9,13.4,13.1-.5,7.7,8.1-2.2,8.2,10.3-1h0L972.6,303l-18.8-9.7-6.7,17.6,6.5,8.2-4.3,10.6,3,4.7-5.9,2.1-.4,17.9-12.5,7.1,5.1,5.4-6.6,4.6,8.2,22.2-4.9,9,8.9-.4-5.3,7.6,5.6,1.9L931.4,423l.5,13.8-5.9,8.3,15,10.8-1.4,24,7.3-3.2,1.8,6.9,6,.1,11.6,12.7,14.6,3.5,17.6,16.3-9.5,6,6.1,2.2-1.9,9,12.3-3.1,8.1,13.9,2.8-3.4,5.3,4.5-1.5,4.9,11.1,8.2-6.2,3.5-1.2,13.3-5.3,4.3,18.7,9.7,1.4,15.1,7.5-4.3,4.7,9.3h0l-7.1,13.7-8.4-1.4-2.4,7.3-6.3-.2V654l-11.8,2.3-3.7-6.6-5.3,6.4-14.4-.3-4.8,13h0l-8.2-.8-6.9,6.1,1-8.4-10.8-5.6.6-5.2-7.6,6.3-11.2-11.9-7.6,4.5-1.2-14.1-5.4-1,9.6-7.6-4.8-10.9h0L927.9,610l-9,2.3,4.2-5.9L913,602.3l1.1-8.1-11.7-3.4-15.2-1-5.3,4.2,2.3,7.2-30.1,1.3-2.7,6.8-6-1-2.3-7.8-3,5.7-4.4-3.4-7.2,6.3-6.3-3.7-1.9,3.8-18.8-.8,2.3-9.4-2.4-4.1-5.4,3.5,2.5-6-10.1-19.2-6.5-2.7,1.1-6.3L772.8,569l-4.6-9.4-6.5,1,5-15.8L752,526.7l-9.5,1.5-1.8-6h0l-4-16.9,6.8-2-3.9-7.1,9.3-2.6-2-5.4,11.9-8.7-3.2-5.6L745.2,476l2.1-19.5-9.2-3.8,6.1-6-5-3.5,10.5-1-.2-7.2h0l24.2-30.8-3.4-5.5-8.2,1.2,6.6-7.7-4.7-8.1,2.7-5.9,15.8-1.6-11.8-10.3L769.6,347l16.6-8.2,9.2,2.2.5-6.8,8.5-5.1,14.2,8.9,5.2-40.6-6.8-9.8,11.5-2.1,1.4-8.7,15.5-15.3-5.5-4.4,5.9-17.1-2.7-17.6h0l9.8-2,17.1,6.2,30.9-11.3,1.2-19.4Z" transform="translate(-485.1 0.33)"/><path id="FR-I" class="cls-2" d="M1050.6,609.3l6.1-9.6,2.1,7.8,11.3-12.6,12-3,8.6,16.3,23.2-5.3,11.1,14,15.7-11.3,29.1,23.1h0l3.8,7.3,21.4,11.1-3.9,22.4,10.1,1.7,5.8,16.6h0l-18.8,1.7,2.4,7.5-7.7,3.8-7.7,14.8,17.2-3.7,4.9,7.2-14.1,8.6,1.5,8.2L1153,765.4l2.1,5.7L1119,793.6l4,7.2-1.5,20.8-42.9,36.1,5.8,5.7-11.5,23.4h0l-24.5,27.4-18.1.7-1.4-8.8-8.9-6.4-13,13.8-8.2.8.2-9.3-6.4-5.9-2.6,6.8-3.4-13-9.8-5.6,1.9-6h0l12.9-5.6-7.4-15.5,10.4-13.7L984.8,830l3.8-7.4-8-8.2,17.4-4.6-8.3-9.5-8.8.9-4.4-9.5-3.7,2-1.2-9.1,8-6.4-4.3-6.6,12.7-6.1,6.8-11.4,10-29.1-6.3-2.4,1.8-14.2-6.5.1.8-10.7-9-2.6,16.3-16.8-7-13.8-8.6,4.6h0l4.8-13,14.4.3,5.3-6.4,3.7,6.6,11.8-2.3V629.1l6.3.2,2.4-7.3,8.4,1.4Z" transform="translate(-485.1 0.33)"/><path id="FR-M" class="cls-2" d="M992.1,291.6l6.8,19.8,10.5-6.2,6.9,4.4,3.9-8.2,13,2.2,3.4-4.7,12,12.4,12.2,1,1.9,8.2,14.8-.5,3.4-7.6,14-4,15.8,10.4,8-3.2,16,10.6-2.1,3.7,7.7,7-4.2,3.6,12.9,12.9,8.7,22.1,12.1,2.1.3-11.4,12.6-1.9,11.9,6.2,2.2,14.7,6-7.9,7.2,6.8,17.2,1.1,8.9-10.8,10-2.3-1.1,3.6,7.3-.8,4.3,13.6,13.7,8.3h0l-12.5,23.1-10.6-6.9-15.8,4.8-4-5.8-21.1-6.1-3.5-13.6-8.3,23.1-11.1,4.3,1.4,7.6,17.6,5.9-5.5,3.5,3.4,11.3,9.4-11.5,13.4,4.4,6.9,10.4-9.1,14.3,7.8,6.1-10.8,20.4-19.2,5.3,8.6,5-5.6-1.1,3.4,5.5-5.2,23,13,2.4,2.4,5.5-17.5,31,2.2,6.7L1183.3,596l-6,20.3,2.9,7.6-10.5,5.2h0L1140.6,606l-15.7,11.3-11.1-14-23.2,5.3-8.6-16.3-12,3-11.3,12.6-2.1-7.8-6.1,9.6h0l-4.7-9.3-7.5,4.3-1.4-15.1-18.7-9.7,5.3-4.3,1.2-13.3,6.2-3.5-11.1-8.2,1.5-4.9-5.3-4.5-2.8,3.4-8.1-13.9-12.3,3.1,1.9-9-6.1-2.2,9.5-6-17.6-16.3-14.6-3.5-11.6-12.7-6-.1-1.8-6.9-7.3,3.2,1.4-24-15-10.8,5.9-8.3-.5-13.8,13.2-11.2-5.6-1.9,5.3-7.6-8.9.4,4.9-9-8.2-22.2,6.6-4.6-5.1-5.4,12.5-7.1.4-17.9,5.9-2.1-3-4.7,4.3-10.6-6.5-8.2,6.7-17.6,18.8,9.7L989,289h0Z" transform="translate(-485.1 0.33)"/><path id="FR-O" class="cls-2" d="M633.9,6.8l8.9,21.4-5.2,5.5,1.2,13.9,4.5,7.4,11,.4,8.9,17,14,6.4L683,67l24.9-7.5,5,12.8,8.7,4.7-2.7,8.6,6.6,26.3,10.6,6.5,12.4-8.2,5.5,1.9-2.3,7.1,13.5-1.7,6.5,7.7-.2,17,6.3,12.6,5-9,19.4,4.7,15.4-6.3L831.8,164l3.1-6.1,5.8,3.4-10,27.1,9,.1,3.8,12.4-8.8,4.1-2.3,13.3h0L812,215.6l.2-9.9-11.9,6.8-1.9-5.5-19.8-6.3L766,209.3l-8.8-5.8-6.6,7.1L734.7,207l-24,4.9-19.8-9.2-18.8,7.5-.8-11.1-13.9,6.6,4.2-13.1-6.4-2.8-3.3,8.7-16-6.3.2-5.2-5.6,5.1-6.5-4.8-7.8,9.9-5.3-4.3,1.5-8.6,13.4-8-5.5-7L608.7,174l-3.3-6.3-.7,5.1-7.2-3.1-15.1,7.5-8.1-2-1.1-10.1-16.3-7,.1-8.5-4.9,3.8-13-9.6-17.5,6-2.9-4.3h0l-11-9.5,4-27.1,6.1,4.9-7.4-11-1.7-30.9,6.4-15.4L511,43.1l36.3-19.6-3.7-.7L577,16.6l6.6-6.8,2.5,7.2,2.1-7.2,23.1-1.5L631.7,0Z" transform="translate(-485.1 0.33)"/><path id="FR-S" class="cls-2" d="M516.7,144.2l1.8,1.4h0l2.9,4.3,17.5-6,13,9.6,4.9-3.8-.1,8.5,16.3,7,1.1,10.1,8.1,2,15.1-7.5,7.2,3.1.7-5.1,3.3,6.3,11.6-4.7,5.5,7-13.4,8-1.5,8.6,5.3,4.3,7.8-9.9,6.5,4.8,5.6-5.1-.2,5.2,16,6.3,3.3-8.7,6.4,2.8-4.2,13.1,13.9-6.6.8,11.1,18.8-7.5,19.8,9.2,24-4.9,15.9,3.6,6.6-7.1,8.8,5.8,12.6-8.6,19.8,6.3,1.9,5.5,11.9-6.8-.2,9.9,20.4,2.7h0l11.2,4h0l2.7,17.6-5.9,17.1,5.5,4.4-15.5,15.3-1.4,8.7-11.5,2.1,6.8,9.8L818.9,338l-14.2-8.9-8.5,5.1-.5,6.8-9.2-2.2L769.9,347l1.1,19.3,11.8,10.3-15.9,1.6-2.7,5.9,4.7,8.1-6.6,7.7,8.2-1.2,3.4,5.5L749.7,435h0l-3,2.8-9.8-6.5L735,420.6l-4.9,3.8-3-7.7-5,1.9-12.2-14,2.9-7.2-6.5-10.7-8.6-2.1-.4,6.1-9.9,2.7-2.4-3.9-14.6,4.1-5.5-5-9.3,6.8-12.7-9.1-6.2,5.5-3.9-8.5-7.8,3.5-22.1-15.3-10.1,6.7-1.8-5.4-6,3-11.2-8.9L549,376l-16.1-2.4-6.3-10.8h0l.7-6.3,6.1-1.5,3.9,5,1.9-5.5-11.3-25.6,9.6-18.5h-9.2l3.9-6.6-6.6-8.5.1-11.9,6.8-9.8h-7.8l7.6-13.3,4.6.2-9.3-24.1L495,206.7l-.5-6-8.9,1.1h0L503.8,174l20.8,3.7-18.7-16.8,2.1-17.1Z" transform="translate(-485.1 0.33)"/></g><circle id="besancon" class="cls-3" cx="574.6" cy="715.43" r="14.5"/><circle id="nancy" class="cls-3" cx="594.4" cy="452.63" r="14.5"/><circle id="mourmelon" class="cls-3" cx="375.5" cy="406.73" r="14.5"/><circle id="metz" class="cls-3" cx="594.4" cy="377.73" r="14.5"/><circle id="stdizier" class="cls-3" cx="447.4" cy="463.43" r="14.5"/><circle id="strasbourg" class="cls-3" cx="781.7" cy="473.83" r="14.5"/><circle id="lille" class="cls-3" cx="209.2" cy="99.33" r="14.5"/><circle id="charleville" class="cls-3" cx="414.3" cy="257.43" r="14.5"/><circle id="belfort" class="cls-3" cx="676.1" cy="641.43" r="14.5"/><circle id="luxieul" class="cls-3" cx="627.4" cy="547.73" r="14.5"/><circle id="phalsbourg" class="cls-3" cx="721.9" cy="444.03" r="14.5"/><circle id="verdun" class="cls-3" cx="501" cy="369.03" r="14.5"/></g></svg>