<svg xmlns="http://www.w3.org/2000/svg" viewBox="0 0 860.43 934.63"><defs><style>.cls-1{fill:#ccc;stroke:#fff;stroke-width:0.5px;}</style></defs><g id="Calque_2" data-name="Calque 2"><g id="Calque_1-2" data-name="Calque 1"><path id="FR-A" class="cls-1" d="M685,629.08l10.45-5.16-2.9-7.64,6-20.33,16.7-20.57L713,568.67l17.52-31-2.42-5.52L715,529.77l5.17-23-3.44-5.49,5.55,1.08-8.64-5,19.25-5.29,10.81-20.35-7.79-6.08L745,451.39,738.11,441l-13.38-4.38-9.42,11.54-3.42-11.3,5.53-3.51-17.61-5.89-1.36-7.58,11.09-4.35,8.27-23.1L721.35,406l21.08,6.1,4,5.8,15.82-4.77L772.88,420l12.53-23.07h0l19.7-2.36,9.06,6.16,8.45-4.65,37.46,17.52-17.91,31.11-14.74,8.58-16.65,22-13.35,46.58L799,534.51l-6.46,4.77-14.59,34L777,589.48l6.62,11.63-8.25,17.34-1.08,27.06-4.56,6.77,9,22.56-10.58,6.71,4,2.14-5.28,8.4-7.16-2.39,3,4.48L754,701.36l-17.94,2-9.19-4.17,4-9.27-8.7-1.66h0l-5.83-16.65-10.12-1.72,3.9-22.38-21.38-11.09Z"/><path id="FR-D" class="cls-1" d="M209.85,528.41l-4,10.21,4,10.39-13.8,16.25h0l11.6,5.59,2.54,11.23,9.39,8.13.42,10.66-14.89,12.45,2,22.23L185.36,641l-.48,7.53,9.81,6.52L201,676l-16.09,5.8,10.36,18.49-7.92,18.39,14.29,14.14,4.53,36.3,7.52,7.43-5.83,41.9h0L229,840l8.7-7.41,9.76,6,9.24-5.47,4.53,11.39,13.05-6.83,3.51-13.26,4.56,1.27,14,27.85.7,11.54,12.17,1.32,3.77,7.86,10.15-.88,6.23,5.65.6,24.35-13.23,9.33h0l-1.09,11.11L326,926l2.09,6,27.36-4.56,8.49,6.89L376.1,929l4.14-19.85,12.32,5.11,8.1-4.77,6.25,5.13,7.73-7.34,9.82,24.2,22.93-62.71L461.92,875l13.92-6.34,8.49,11.08,9.84,2.12h0L507,876.31l-7.4-15.49,10.42-13.72-10.15-16.76,3.84-7.4-8-8.22,17.36-4.59-8.33-9.48-8.76.9L491.61,792l-3.75,2-1.21-9.06,8-6.37-4.32-6.65L503,765.85l6.8-11.45,10-29.14-6.25-2.45,1.84-14.17-6.46.06.81-10.69-9-2.6,16.34-16.82-7-13.83-8.64,4.62h0l-8.21-.82-6.89,6.07,1-8.42-10.75-5.56.63-5.23-7.64,6.28-11.18-11.9-7.55,4.53-1.21-14.13-5.43-1,9.6-7.61-11.18-21.11-9,2.29,4.23-5.89-10.12-4.1,1.06-8.13L402,590.36l-5.35,4.23,2.33,7.19-30.12,1.27-2.71,6.79-6.05-1-2.29-7.83-3,5.71-4.41-3.38-7.16,6.28L336.9,606,335,609.81l-18.78-.75,2.32-9.43-2.35-4.07L310.77,599l2.54-6-10.12-19.24-6.47-2.75,1.09-6.25-10.18,4.83L283,560.28l-6.46,1,5-15.79-14.47-18.4-9.48,1.48-1.75-5.95Z"/><path id="FR-G" class="cls-1" d="M434.1,184.56l7.61,3.41-9.58,14,2.66,5.26-6.46,13.47,12.38,11.51-5.16,8.31.57,14.28,18-1.36,12.42,7.22,9,13.44,13.08-.48,7.67,8.1-2.21,8.24,10.27-1h0l-16.73,14.41-18.79-9.72-6.7,17.64,6.52,8.21-4.29,10.63,3,4.69-5.92,2.08-.42,17.88-12.47,7.1,5.13,5.38-6.61,4.62L455.3,394l-4.89,9,8.91-.39-5.26,7.58,5.65,1.9L446.48,423.3l.45,13.8-5.86,8.34,15,10.75-1.36,23.95,7.31-3.2,1.75,6.89,6,.09L481.4,496.6,496,500.14l17.61,16.28-9.49,6,6.07,2.23-1.9,9,12.26-3.12,8.07,13.9,2.84-3.35,5.28,4.5-1.54,4.92,11.09,8.25-6.16,3.5-1.24,13.32-5.35,4.29,18.67,9.7,1.36,15.1,7.46-4.32,4.74,9.27h0l-7.13,13.71L550.17,622l-2.38,7.34-6.34-.16,0,25.32-11.78,2.32L526,650.29l-5.26,6.4-14.43-.27-4.78,13h0l-8.21-.82-6.89,6.07,1-8.42-10.75-5.56.63-5.23-7.64,6.28-11.18-11.9-7.55,4.53-1.21-14.13-5.43-1,9.6-7.61L449,620.69h0l-6.35-10.18-9,2.29,4.23-5.89-10.12-4.1,1.06-8.13-11.66-3.35-15.22-1-5.35,4.23,2.33,7.19-30.12,1.27-2.71,6.79-6.05-1-2.29-7.83-3,5.71-4.41-3.38-7.16,6.28L336.9,606,335,609.81l-18.78-.75,2.32-9.43-2.35-4.07L310.77,599l2.54-6-10.12-19.24-6.47-2.75,1.09-6.25-10.18,4.83L283,560.28l-6.46,1,5-15.79-14.47-18.4-9.48,1.48-1.75-5.95h0l-4-16.94,6.83-2-3.93-7.07,9.33-2.59-2-5.44,11.9-8.7-3.17-5.62-10.42,2.12,2.14-19.46-9.24-3.83,6.13-6-5-3.48,10.51-1-.24-7.25h0l24.16-30.81L285.49,399l-8.22,1.18,6.65-7.67-4.68-8.1,2.68-5.89,15.83-1.6-11.84-10.33-1.09-19.3L301.47,339l9.21,2.21.54-6.8,8.55-5.1,14.17,8.94,5.19-40.63-6.82-9.81,11.47-2.15,1.42-8.7,15.5-15.28-5.5-4.44,5.92-17.13-2.66-17.58h0l9.76-2,17.1,6.16,30.87-11.29L417.36,196Z"/><path id="FR-I" class="cls-1" d="M565.73,609.66l6.07-9.6,2.09,7.76,11.32-12.63,12-3,8.64,16.31L629,603.2l11.15,14L655.83,606,685,629.08h0l3.78,7.34,21.38,11.09-3.9,22.38,10.12,1.72,5.83,16.65h0l-18.76,1.66,2.36,7.49L698,701.24,690.36,716l17.21-3.71,4.93,7.22-14.11,8.61,1.54,8.21-31.65,29.54,2.05,5.71-36.06,22.5,4,7.16-1.48,20.81L594,858.22l5.8,5.71-11.54,23.44h0l-24.46,27.39-18.1.7-1.45-8.76-8.88-6.41-13,13.78-8.19.75.21-9.27-6.4-5.86-2.57,6.77-3.35-13-9.76-5.59,1.93-6h0L507,876.31l-7.4-15.49,10.42-13.72-10.15-16.76,3.84-7.4-8-8.22,17.36-4.59-8.33-9.48-8.76.9L491.61,792l-3.75,2-1.21-9.06,8-6.37-4.32-6.65L503,765.85l6.8-11.45,10-29.14-6.25-2.45,1.84-14.17-6.46.06.81-10.69-9-2.6,16.34-16.82-7-13.83-8.64,4.62h0l4.78-13,14.43.27,5.26-6.4,3.69,6.55,11.78-2.32,0-25.32,6.34.16,2.38-7.34,8.43,1.35Z"/><path id="FR-M" class="cls-1" d="M507.25,292l6.8,19.81,10.51-6.19,6.89,4.38,3.86-8.25,13,2.18,3.42-4.69,12,12.42,12.23,1,1.93,8.18,14.83-.48,3.39-7.61,14-4,15.77,10.39,8-3.17,16,10.57-2.11,3.65,7.67,7-4.23,3.57,12.9,12.86,8.67,22.14L685,377.9l.33-11.39,12.57-1.93,11.93,6.16L712,385.42l6-7.94,7.25,6.76,17.16,1.06,8.91-10.78,10-2.33-1.12,3.62,7.31-.81,4.29,13.62,13.65,8.31h0L772.88,420l-10.64-6.85-15.82,4.77-4-5.8L721.35,406l-3.54-13.62-8.27,23.1-11.09,4.35,1.36,7.58,17.61,5.89-5.53,3.51,3.42,11.3,9.42-11.54L738.11,441,745,451.39l-9.06,14.25,7.79,6.08-10.81,20.35-19.25,5.29,8.64,5-5.55-1.08,3.44,5.49-5.17,23,13.05,2.39,2.42,5.52-17.52,31,2.17,6.71L698.45,596l-6,20.33,2.9,7.64L685,629.08h0L655.83,606l-15.67,11.26L629,603.2l-23.2,5.34-8.64-16.31-12,3-11.32,12.63-2.09-7.76-6.07,9.6h0L561,600.39l-7.46,4.32-1.36-15.1-18.67-9.7,5.35-4.29,1.24-13.32,6.16-3.5-11.09-8.25,1.54-4.92-5.28-4.5-2.84,3.35-8.07-13.9-12.26,3.12,1.9-9-6.07-2.23,9.49-6L496,500.14,481.4,496.6l-11.63-12.68-6-.09L462,476.94l-7.31,3.2,1.36-23.95-15-10.75,5.86-8.34-.45-13.8,13.23-11.18-5.65-1.9,5.26-7.58-8.91.39,4.89-9-8.15-22.2,6.61-4.62-5.13-5.38,12.47-7.1.42-17.88,5.92-2.08-3-4.69,4.29-10.63-6.52-8.21,6.7-17.64,18.79,9.72,16.73-14.41h0Z"/><path id="FR-O" class="cls-1" d="M149,7.1l8.88,21.42L152.65,34l1.17,13.9,4.47,7.37,11,.42,8.94,17,14.05,6.37L198,67.3l24.89-7.52,5,12.81,8.7,4.65L234,85.85l6.55,26.3,10.6,6.53,12.39-8.25,5.53,1.91-2.3,7.12,13.53-1.72,6.53,7.73-.21,17,6.25,12.63,4.95-9,19.39,4.75,15.38-6.29,14.19,19.79,3.12-6.1,5.79,3.35-10,27.06,9,.12,3.77,12.42-8.79,4.11-2.29,13.32h0l-20.39-2.66.21-9.88-11.87,6.77-1.93-5.5-19.76-6.28L281,209.69l-8.79-5.77-6.65,7.13-15.95-3.63-23.95,4.92-19.81-9.24L187,210.62l-.79-11.08-13.86,6.55L176.48,193l-6.41-2.84-3.26,8.73-16-6.25.25-5.22-5.56,5.1L139,187.7l-7.82,9.93-5.35-4.31,1.48-8.58,13.42-8-5.47-7-11.63,4.68-3.29-6.35-.67,5.08-7.16-3.08-15.13,7.52-8.06-2-1.12-10.06-16.34-7,.12-8.46-4.86,3.84-13-9.64-17.52,6L33.64,146h0l-11-9.48,4.05-27.06,6.07,4.92-7.37-11-1.72-30.9,6.4-15.37L26,43.71,62.33,24.08l-3.68-.7,33.44-6.16,6.64-6.83,2.51,7.25,2.08-7.25L126.4,8.85,146.82.34Z"/><path id="FR-S" class="cls-1" d="M31.86,144.5l1.78,1.42h0l2.93,4.35,17.52-6,13,9.64L71.94,150l-.12,8.46,16.34,7,1.12,10.05,8.06,2L112.47,170l7.16,3.08.67-5.08,3.29,6.35,11.63-4.68,5.47,7-13.42,8-1.48,8.57,5.35,4.32,7.82-9.93,6.5,4.77L151,187.3l-.25,5.23,16,6.25,3.26-8.73,6.41,2.84L172.31,206l13.86-6.55.79,11.08L205.81,203l19.81,9.24,23.95-4.92L265.52,211l6.65-7.13,8.79,5.77L293.58,201l19.76,6.28,1.93,5.5L327.14,206l-.21,9.88,20.39,2.66h0l11.17,4h0l2.66,17.58-5.92,17.13,5.5,4.44L345.23,277l-1.39,8.7-11.47,2.15,6.82,9.81L334,338.24l-14.17-8.94-8.55,5.1-.54,6.8L301.53,339l-16.62,8.22,1.09,19.3,11.84,10.3L282,378.44l-2.68,5.89,4.68,8.1-6.65,7.67,8.22-1.18,3.41,5.5L264.8,435.23h0l-3,2.78L252,431.48,250,420.76l-4.87,3.84-3-7.74-5,1.88-12.2-14,2.93-7.22-6.53-10.69-8.58-2.09-.42,6.08-9.91,2.68L200,389.59l-14.65,4.08-5.47-5.05-9.33,6.83-12.66-9.06-6.19,5.46-3.9-8.51-7.79,3.47-22.14-15.25-10.12,6.73L106,372.91l-6,3L88.73,367l-24.83,9.1-16.13-2.42-6.34-10.75h0l.7-6.32,6.1-1.48,3.89,5.05L54,354.7,42.73,329.15l9.58-18.55-9.16,0,3.9-6.61-6.55-8.55.12-11.93,6.79-9.79H39.59l7.55-13.26,4.59.18-9.27-24.1L9.9,206.82l-.46-5.95L.5,202h0l18.16-27.84,20.78,3.65L20.71,161l2.05-17.07Z"/></g></g></svg>